:FULLY-SPECIFIED
:FORCE-ALL-JOINTS-BE-3DOF
:DEGREES
388
root 9.45848 17.0688 18.1255 6.11689 -0.235689 -5.00006
lfemur -41.2142 2.67643 -15.4205
ltibia 30.1113 0 0
lfoot -14.8223 9.66521 0
ltoes -15.1343 0 0
rfemur 2.38211 5.70858 31.3726
rtibia 14.2853 0 0
rfoot -15.8736 5.21429 0
rtoes -16.1491 0 0
lowerback -6.79513 2.44019 1.49043
upperback -0.022398 3.00624 3.35772
thorax 3.68441 1.49403 2.93806
lowerneck -19.3254 -6.22436 -13.1738
upperneck 21.5527 -8.09682 13.1688
head 11.3133 -3.2467 5.79226
lclavicle -1.80397e-14 1.98785e-16 0
lhumerus -50.2011 -11.539 95.3372
lradius 26.3091 0 0
lwrist 9.45019 0 0
lhand -13.6083 -22.5148 0
lfingers 7.12502 0 0
lthumb 12.5066 7.08817 0
rclavicle -1.80397e-14 1.98785e-16 0
rhumerus -27.3577 16.7712 -83.1098
rradius 43.1136 0 0
rwrist -21.5179 0 0
rhand -32.1672 -23.3134 0
rfingers 7.12502 0 0
rthumb -5.41014 -53.2244 0
389
root 9.46801 17.0631 18.2589 6.0778 -0.40289 -5.25542
lfemur -41.3161 2.40189 -14.9724
ltibia 28.536 0 0
lfoot -14.92 9.77361 0
ltoes -15.6498 0 0
rfemur 3.58184 5.73399 31.62
rtibia 12.9862 0 0
rfoot -15.4096 5.39021 0
rtoes -15.5079 0 0
lowerback -6.82654 2.54405 1.69486
upperback 0.047415 3.12195 3.43493
thorax 3.77671 1.55381 2.91948
lowerneck -19.3795 -6.24512 -13.2261
upperneck 21.5278 -8.11219 13.2122
head 11.3218 -3.2512 5.81422
lclavicle -2.38293e-14 -1.45775e-15 0
lhumerus -50.4367 -11.37 95.3703
lradius 26.3884 0 0
lwrist 9.58059 0 0
lhand -13.2554 -22.2515 0
lfingers 7.12502 0 0
lthumb 12.8469 7.33066 0
rclavicle -2.38293e-14 -1.45775e-15 0
rhumerus -27.0039 16.6139 -83.1242
rradius 42.7574 0 0
rwrist -21.3426 0 0
rhand -32.1887 -22.89 0
rfingers 7.12502 0 0
rthumb -5.43087 -52.8004 0
390
root 9.47753 17.0574 18.3924 6.03872 -0.57009 -5.51077
lfemur -41.4179 2.12736 -14.5243
ltibia 26.9606 0 0
lfoot -15.0178 9.88201 0
ltoes -16.1654 0 0
rfemur 4.78156 5.75939 31.8674
rtibia 11.6872 0 0
rfoot -14.9455 5.56614 0
rtoes -14.8666 0 0
lowerback -6.85796 2.64792 1.8993
upperback 0.117228 3.23767 3.51213
thorax 3.86901 1.61359 2.90089
lowerneck -19.4335 -6.26588 -13.2784
upperneck 21.5028 -8.12756 13.2556
head 11.3302 -3.25569 5.83618
lclavicle -2.96189e-14 -3.11429e-15 0
lhumerus -50.6722 -11.201 95.4035
lradius 26.4677 0 0
lwrist 9.71099 0 0
lhand -12.9024 -21.9883 0
lfingers 7.12502 0 0
lthumb 13.1872 7.57315 0
rclavicle -2.96189e-14 -3.11429e-15 0
rhumerus -26.6502 16.4565 -83.1386
rradius 42.4013 0 0
rwrist -21.1674 0 0
rhand -32.2101 -22.4665 0
rfingers 7.12502 0 0
rthumb -5.4516 -52.3765 0
391
root 9.48706 17.0517 18.5259 5.99963 -0.73729 -5.76612
lfemur -41.5197 1.85283 -14.0762
ltibia 25.3853 0 0
lfoot -15.1155 9.99041 0
ltoes -16.6809 0 0
rfemur 5.98129 5.7848 32.1148
rtibia 10.3882 0 0
rfoot -14.4814 5.74206 0
rtoes -14.2254 0 0
lowerback -6.88938 2.75178 2.10373
upperback 0.187041 3.35339 3.58934
thorax 3.9613 1.67337 2.88231
lowerneck -19.4876 -6.28664 -13.3307
upperneck 21.4778 -8.14292 13.299
head 11.3387 -3.26018 5.85814
lclavicle -3.54085e-14 -4.77083e-15 0
lhumerus -50.9077 -11.0319 95.4366
lradius 26.547 0 0
lwrist 9.84139 0 0
lhand -12.5494 -21.725 0
lfingers 7.12502 0 0
lthumb 13.5275 7.81564 0
rclavicle -3.54085e-14 -4.77083e-15 0
rhumerus -26.2964 16.2992 -83.153
rradius 42.0452 0 0
rwrist -20.9921 0 0
rhand -32.2316 -22.0431 0
rfingers 7.12502 0 0
rthumb -5.47233 -51.9525 0
392
root 9.50246 17.0404 18.6662 6.02492 -0.845852 -5.94733
lfemur -41.6658 0.969152 -13.2978
ltibia 24.5252 0 0
lfoot -15.2155 10.8889 0
ltoes -16.9075 0 0
rfemur 7.35104 5.83438 32.2248
rtibia 8.65683 0 0
rfoot -13.5447 5.83825 0
rtoes -13.4175 0 0
lowerback -6.98123 2.83662 2.27428
upperback 0.217863 3.44368 3.63559
thorax 4.0506 1.72095 2.85262
lowerneck -19.4773 -6.30205 -13.3769
upperneck 21.4733 -8.14739 13.2862
head 11.3373 -3.26785 5.86022
lclavicle -3.02898e-14 -7.55381e-15 0
lhumerus -51.1016 -10.8853 95.5125
lradius 26.5765 0 0
lwrist 9.68983 0 0
lhand -12.5138 -22.6084 0
lfingers 7.12502 0 0
lthumb 13.5618 6.92997 0
rclavicle -3.02898e-14 -7.55381e-15 0
rhumerus -26.2236 16.1744 -83.2239
rradius 41.8396 0 0
rwrist -20.8218 0 0
rhand -32.0014 -22.0357 0
rfingers 7.12502 0 0
rthumb -5.25007 -51.9501 0
393
root 9.51785 17.0291 18.8065 6.05021 -0.954413 -6.12853
lfemur -41.8119 0.0854733 -12.5194
ltibia 23.665 0 0
lfoot -15.3155 11.7875 0
ltoes -17.1342 0 0
rfemur 8.72079 5.88395 32.3349
rtibia 6.92547 0 0
rfoot -12.608 5.93444 0
rtoes -12.6096 0 0
lowerback -7.07308 2.92146 2.44483
upperback 0.248684 3.53396 3.68185
thorax 4.13989 1.76852 2.82293
lowerneck -19.467 -6.31746 -13.423
upperneck 21.4689 -8.15186 13.2735
head 11.3358 -3.27552 5.86229
lclavicle -2.51711e-14 -1.03368e-14 0
lhumerus -51.2955 -10.7386 95.5884
lradius 26.6059 0 0
lwrist 9.53826 0 0
lhand -12.4782 -23.4917 0
lfingers 7.12502 0 0
lthumb 13.5961 6.04431 0
rclavicle -2.51711e-14 -1.03368e-14 0
rhumerus -26.1508 16.0496 -83.2949
rradius 41.634 0 0
rwrist -20.6515 0 0
rhand -31.7712 -22.0283 0
rfingers 7.12502 0 0
rthumb -5.0278 -51.9478 0
394
root 9.53325 17.0178 18.9467 6.0755 -1.06298 -6.30973
lfemur -41.958 -0.798205 -11.7411
ltibia 22.8049 0 0
lfoot -15.4155 12.686 0
ltoes -17.3608 0 0
rfemur 10.0905 5.93353 32.4449
rtibia 5.1941 0 0
rfoot -11.6713 6.03063 0
rtoes -11.8016 0 0
lowerback -7.16493 3.0063 2.61538
upperback 0.279506 3.62425 3.72811
thorax 4.22919 1.8161 2.79324
lowerneck -19.4566 -6.33287 -13.4691
upperneck 21.4644 -8.15633 13.2607
head 11.3344 -3.28319 5.86437
lclavicle -2.00524e-14 -1.31198e-14 0
lhumerus -51.4894 -10.592 95.6643
lradius 26.6354 0 0
lwrist 9.3867 0 0
lhand -12.4426 -24.3751 0
lfingers 7.12502 0 0
lthumb 13.6304 5.15864 0
rclavicle -2.00524e-14 -1.31198e-14 0
rhumerus -26.078 15.9248 -83.3658
rradius 41.4284 0 0
rwrist -20.4812 0 0
rhand -31.541 -22.0209 0
rfingers 7.12502 0 0
rthumb -4.80554 -51.9454 0
395
root 9.54865 17.0065 19.087 6.10078 -1.17154 -6.49094
lfemur -42.1041 -1.68188 -10.9627
ltibia 21.9447 0 0
lfoot -15.5155 13.5845 0
ltoes -17.5874 0 0
rfemur 11.4603 5.98311 32.5549
rtibia 3.46273 0 0
rfoot -10.7346 6.12682 0
rtoes -10.9937 0 0
lowerback -7.25677 3.09114 2.78593
upperback 0.310327 3.71454 3.77436
thorax 4.31849 1.86367 2.76354
lowerneck -19.4463 -6.34828 -13.5153
upperneck 21.46 -8.1608 13.2479
head 11.333 -3.29085 5.86645
lclavicle -1.49337e-14 -1.59027e-14 0
lhumerus -51.6833 -10.4453 95.7402
lradius 26.6648 0 0
lwrist 9.23514 0 0
lhand -12.407 -25.2584 0
lfingers 7.12502 0 0
lthumb 13.6647 4.27298 0
rclavicle -1.49337e-14 -1.59027e-14 0
rhumerus -26.0052 15.8 -83.4367
rradius 41.2228 0 0
rwrist -20.3109 0 0
rhand -31.3109 -22.0135 0
rfingers 7.12502 0 0
rthumb -4.58328 -51.943 0
396
root 9.56404 16.9952 19.2273 6.12607 -1.2801 -6.67214
lfemur -42.2502 -2.56556 -10.1843
ltibia 21.0846 0 0
lfoot -15.6155 14.4831 0
ltoes -17.8141 0 0
rfemur 12.83 6.03268 32.665
rtibia 1.73137 0 0
rfoot -9.79793 6.22301 0
rtoes -10.1858 0 0
lowerback -7.34862 3.17598 2.95648
upperback 0.341149 3.80482 3.82062
thorax 4.40778 1.91124 2.73385
lowerneck -19.436 -6.36369 -13.5614
upperneck 21.4556 -8.16527 13.2352
head 11.3315 -3.29852 5.86852
lclavicle -9.81499e-15 -1.86857e-14 0
lhumerus -51.8772 -10.2986 95.8161
lradius 26.6943 0 0
lwrist 9.08357 0 0
lhand -12.3714 -26.1417 0
lfingers 7.12502 0 0
lthumb 13.699 3.38732 0
rclavicle -9.81499e-15 -1.86857e-14 0
rhumerus -25.9324 15.6752 -83.5077
rradius 41.0172 0 0
rwrist -20.1406 0 0
rhand -31.0807 -22.0061 0
rfingers 7.12502 0 0
rthumb -4.36101 -51.9407 0
397
root 9.57944 16.9839 19.3676 6.15136 -1.38866 -6.85335
lfemur -42.3963 -3.44924 -9.40591
ltibia 20.2244 0 0
lfoot -15.7155 15.3816 0
ltoes -18.0407 0 0
rfemur 14.1998 6.08226 32.775
rtibia 4.45278e-14 0 0
rfoot -8.86124 6.3192 0
rtoes -9.37787 0 0
lowerback -7.44047 3.26082 3.12703
upperback 0.37197 3.89511 3.86687
thorax 4.49708 1.95882 2.70416
lowerneck -19.4257 -6.3791 -13.6076
upperneck 21.4511 -8.16974 13.2224
head 11.3301 -3.30619 5.8706
lclavicle -4.69629e-15 -2.14687e-14 0
lhumerus -52.0711 -10.152 95.892
lradius 26.7237 0 0
lwrist 8.93201 0 0
lhand -12.3358 -27.0251 0
lfingers 7.12502 0 0
lthumb 13.7333 2.50165 0
rclavicle -4.69629e-15 -2.14687e-14 0
rhumerus -25.8596 15.5504 -83.5786
rradius 40.8116 0 0
rwrist -19.9703 0 0
rhand -30.8505 -21.9987 0
rfingers 7.12502 0 0
rthumb -4.13875 -51.9383 0
